<svg width="150" height="150" viewBox="0 0 150 150" fill="none" xmlns="http://www.w3.org/2000/svg">
<g clip-path="url(#clip0)">
<path d="M75 150C116.421 150 150 116.421 150 75C150 33.5786 116.421 0 75 0C33.5786 0 -5.66099e-06 33.5786 -1.26442e-05 75C-1.96274e-05 116.421 33.5786 150 75 150Z" fill="#F3F0FE"/>
<g clip-path="url(#clip1)">
<path d="M36.5105 123.17H29.1757C28.6593 123.167 28.165 122.96 27.7998 122.595C27.4346 122.23 27.2279 121.736 27.2245 121.22V92.7406C27.2283 92.2246 27.4351 91.7308 27.8003 91.3661C28.1654 91.0013 28.6595 90.7949 29.1757 90.7915H36.5105C37.0266 90.7949 37.5205 91.0014 37.8854 91.3662C38.2503 91.7309 38.4568 92.2247 38.4603 92.7406V121.22C38.4572 121.736 38.2509 122.23 37.8859 122.595C37.521 122.96 37.0268 123.167 36.5105 123.17Z" fill="#020001"/>
<path d="M122.26 123.17H114.925C114.409 123.167 113.915 122.96 113.55 122.595C113.185 122.23 112.979 121.736 112.976 121.22V92.7406C112.979 92.2247 113.186 91.7309 113.55 91.3662C113.915 91.0014 114.409 90.7949 114.925 90.7915H122.26C122.776 90.7949 123.27 91.0013 123.636 91.3661C124.001 91.7308 124.208 92.2246 124.211 92.7406V121.22C124.208 121.736 124.001 122.23 123.636 122.595C123.271 122.96 122.777 123.167 122.26 123.17Z" fill="#020001"/>
<path d="M125.071 69.0846C124.764 76.6685 122.717 90.93 122.717 96.6767C122.717 101.344 120.334 103.804 118.556 104.979C117.596 105.61 116.471 105.942 115.323 105.935L74.3808 106.981L35.0308 106.167C33.8847 106.174 32.762 105.843 31.8036 105.215C30.0284 104.032 27.6436 101.578 27.6436 96.9124C27.6436 91.1641 25.7244 76.6685 25.416 69.0846C25.3021 66.2631 25.4106 63.437 25.7404 60.6325C26.66 52.7927 29.151 37.097 35.1589 26.1605C35.4547 25.6242 35.862 25.1574 36.3534 24.7915C36.8449 24.4257 37.409 24.1694 38.0078 24.0399H38.0355C39.3115 23.7649 41.3457 23.4217 44.5118 23.0944C44.8358 23.0605 45.1729 23.0275 45.5231 22.9955C51.1657 22.4501 60.0312 21.9846 73.809 21.9512C74.2818 21.9512 74.7606 21.9512 75.2436 21.9512C89.8376 21.9512 99.1062 22.4312 104.941 22.9824L106.041 23.093C109.163 23.4144 111.176 23.7562 112.443 24.0282H112.474C113.073 24.1584 113.637 24.4157 114.129 24.7825C114.62 25.1493 115.027 25.6173 115.323 26.1547C121.33 37.097 123.821 52.7927 124.741 60.6267C125.074 63.4329 125.184 66.261 125.071 69.0846Z" fill="#00643A"/>
<path opacity="0.5" d="M112.49 59.5882C104.133 59.8529 75.2407 59.5882 75.2407 59.5882C75.2407 59.5882 70.2936 59.6332 63.9046 59.6682C59.8988 59.6885 55.3198 59.706 51.0464 59.706C45.654 59.706 40.7258 59.674 37.9933 59.5882C29.637 59.3205 33.0549 48.5121 33.0549 48.5121L37.2672 33.5524C37.2861 33.4884 37.3065 33.4259 37.3283 33.3633C37.5201 32.8588 37.856 32.4218 38.2942 32.1066C38.7325 31.7913 39.2537 31.6118 39.7932 31.5903C51.5993 30.9416 63.4157 30.6177 75.2422 30.6187C75.8693 30.6187 76.4964 30.6187 77.1235 30.6187C81.3916 30.6303 85.6597 30.6846 89.9278 30.7816C96.8509 30.9386 103.772 31.2063 110.691 31.5845C111.232 31.6057 111.755 31.7852 112.194 32.1006C112.634 32.4161 112.971 32.8536 113.165 33.359C113.188 33.4215 113.208 33.484 113.226 33.548L117.445 48.5077C117.445 48.5077 120.852 59.3205 112.49 59.5882Z" fill="#C5CBCF"/>
<path d="M89.9249 30.786L63.906 59.6682C59.9003 59.6886 55.3213 59.706 51.0479 59.706L77.1235 30.623C81.3926 30.6347 85.6598 30.689 89.9249 30.786Z" fill="#E1E1E1"/>
<path d="M67.708 59.5865H73.1789L99.0567 30.9922H93.4592L67.708 59.5865Z" fill="#E1E1E1"/>
<path d="M97.9626 70.2321C93.3152 70.187 75.2422 70.2422 75.2422 70.2422C75.2422 70.2422 57.1692 70.187 52.5233 70.2321C52.401 70.2334 52.2808 70.2644 52.1732 70.3225C52.0656 70.3806 51.9737 70.464 51.9055 70.5655C51.8374 70.667 51.7949 70.7836 51.7819 70.9052C51.7688 71.0267 51.7856 71.1497 51.8307 71.2633C52.0732 71.8756 52.4941 72.401 53.039 72.7711C53.5839 73.1412 54.2275 73.339 54.8863 73.3389H95.5996C96.2584 73.3392 96.9021 73.1415 97.447 72.7713C97.9919 72.4012 98.4129 71.8757 98.6552 71.2633C98.7006 71.1497 98.7177 71.0266 98.7048 70.9049C98.6919 70.7832 98.6495 70.6665 98.5813 70.5649C98.513 70.4632 98.421 70.3798 98.3132 70.3218C98.2054 70.2638 98.085 70.233 97.9626 70.2321Z" fill="#020001"/>
<path d="M75.2422 73.3391C77.0568 73.3391 78.5277 71.8687 78.5277 70.0548C78.5277 68.2409 77.0568 66.7705 75.2422 66.7705C73.4277 66.7705 71.9568 68.2409 71.9568 70.0548C71.9568 71.8687 73.4277 73.3391 75.2422 73.3391Z" fill="#16261F"/>
<path opacity="0.5" d="M101.527 74.4898C101.527 74.4898 99.7537 74.4084 99.7537 72.0041C99.7537 69.6943 100.88 62.5003 114.695 61.9301C115.407 61.8969 116.111 62.0796 116.717 62.4542C117.322 62.8288 117.8 63.3778 118.087 64.029C118.634 65.2915 119.093 67.2464 119.014 70.215C118.828 77.1152 101.527 74.4898 101.527 74.4898Z" fill="#C5CBCF"/>
<path d="M118.113 68.9319C118.109 69.2781 118.036 69.62 117.899 69.9378C117.761 70.2556 117.562 70.5431 117.313 70.7835C117.252 70.842 117.175 70.881 117.092 70.8955C117.008 70.91 116.923 70.8993 116.845 70.8647C116.768 70.8302 116.703 70.7734 116.658 70.7017C116.614 70.63 116.591 70.5465 116.594 70.462V70.4519C116.653 68.1959 116.303 66.7109 115.89 65.7523C115.672 65.2572 115.308 64.8398 114.848 64.5555C114.387 64.2711 113.851 64.1331 113.31 64.1596H113.184C112.277 64.2018 112.165 62.8506 113.073 62.7619C113.626 62.7037 114.212 62.66 114.832 62.6353C115.372 62.6098 115.908 62.7482 116.368 63.0325C116.828 63.3168 117.191 63.7336 117.409 64.228C117.825 65.1923 118.175 66.6759 118.113 68.9319Z" fill="white"/>
<path opacity="0.5" d="M48.8275 74.4894C48.8275 74.4894 50.607 74.4079 50.607 72.0036C50.607 69.6938 49.4808 62.4998 35.6652 61.9297C34.9538 61.8963 34.249 62.079 33.6434 62.4536C33.0378 62.8282 32.5597 63.3772 32.2721 64.0285C31.725 65.291 31.2667 67.2459 31.3452 70.2145C31.5286 77.1147 48.8275 74.4894 48.8275 74.4894Z" fill="#C5CBCF"/>
<path d="M32.371 68.9319C32.3753 69.2781 32.4482 69.62 32.5856 69.9379C32.723 70.2557 32.922 70.5431 33.1713 70.7835C33.2323 70.8421 33.3094 70.8811 33.3927 70.8955C33.476 70.91 33.5617 70.8993 33.6389 70.8648C33.7161 70.8303 33.7813 70.7735 33.826 70.7018C33.8707 70.63 33.893 70.5466 33.89 70.4621V70.4519C33.8304 68.196 34.1811 66.7109 34.5928 65.7524C34.8112 65.2572 35.1747 64.8399 35.6353 64.5555C36.0959 64.2711 36.6319 64.1331 37.1726 64.1597H37.2992C38.2057 64.2019 38.3177 62.8506 37.4112 62.7619C36.8569 62.7037 36.2705 62.6601 35.6521 62.6353C35.1117 62.6097 34.5763 62.7481 34.1161 63.0324C33.6559 63.3166 33.2925 63.7335 33.0738 64.228C32.6591 65.1924 32.3099 66.676 32.371 68.9319Z" fill="white"/>
<path d="M120.535 69.4512C115.487 69.4512 129.381 75.1427 75.2422 75.1427C21.1033 75.1427 35.0047 69.4512 29.9499 69.4512C24.8951 69.4512 25.3767 75.1427 25.3767 75.1427C25.3767 75.1427 26.3952 89.1293 26.3952 98.4687C26.3952 107.808 32.8076 109.011 32.8076 109.011H117.674C117.674 109.011 124.086 107.808 124.086 98.4687C124.086 89.1293 125.105 75.1427 125.105 75.1427C125.105 75.1427 125.582 69.4512 120.535 69.4512Z" fill="#16261F"/>
<path d="M133.163 51.8037H126.628C126.085 51.8037 125.645 52.2439 125.645 52.787V62.3882C125.645 62.9312 126.085 63.3715 126.628 63.3715H133.163C133.706 63.3715 134.146 62.9312 134.146 62.3882V52.787C134.146 52.2439 133.706 51.8037 133.163 51.8037Z" fill="#020001"/>
<path d="M129.7 60.2979H122.214C121.933 60.2979 121.706 60.5251 121.706 60.8055V62.8636C121.706 63.144 121.933 63.3712 122.214 63.3712H129.7C129.98 63.3712 130.208 63.144 130.208 62.8636V60.8055C130.208 60.5251 129.98 60.2979 129.7 60.2979Z" fill="#020001"/>
<path d="M15.6178 63.3711H22.1524C22.6956 63.3711 23.136 62.9309 23.136 62.3878V52.7866C23.136 52.2436 22.6956 51.8034 22.1524 51.8034H15.6178C15.0746 51.8034 14.6342 52.2436 14.6342 52.7866L14.6342 62.3878C14.6342 62.9309 15.0746 63.3711 15.6178 63.3711Z" fill="#020001"/>
<path d="M19.0807 63.3711H26.5669C26.8474 63.3711 27.0747 63.1438 27.0747 62.8635V60.8053C27.0747 60.525 26.8474 60.2977 26.5669 60.2977H19.0807C18.8003 60.2977 18.5729 60.525 18.5729 60.8053V62.8635C18.5729 63.1438 18.8003 63.3711 19.0807 63.3711Z" fill="#020001"/>
<path d="M112.631 94.5475H116.759C117.05 94.5434 117.338 94.6093 117.598 94.7395C118.391 95.1541 119.402 96.4544 117.53 100.526C115.797 104.29 111.598 106.728 108.816 107.989C108.656 108.062 108.476 108.081 108.305 108.044C108.133 108.006 107.978 107.913 107.864 107.779C107.75 107.645 107.682 107.478 107.672 107.302C107.662 107.126 107.709 106.952 107.807 106.806C109.462 104.333 111.646 100.251 110.764 96.9257C110.693 96.6427 110.688 96.3473 110.748 96.0619C110.809 95.7766 110.934 95.5089 111.115 95.2794C111.295 95.0499 111.525 94.8647 111.788 94.7378C112.051 94.611 112.339 94.5459 112.631 94.5475Z" fill="#020001"/>
<path opacity="0.5" d="M114.516 100.266C115.818 100.266 116.874 99.2113 116.874 97.91C116.874 96.6087 115.818 95.5537 114.516 95.5537C113.215 95.5537 112.159 96.6087 112.159 97.91C112.159 99.2113 113.215 100.266 114.516 100.266Z" fill="#C5CBCF"/>
<path d="M116.517 97.3705C116.545 97.5586 116.545 97.7497 116.517 97.9378C116.509 97.9865 116.483 98.0305 116.444 98.061C116.405 98.0916 116.356 98.1066 116.307 98.1031C116.257 98.0997 116.211 98.078 116.177 98.0424C116.142 98.0067 116.123 97.9596 116.121 97.9102C116.122 97.9014 116.122 97.8927 116.121 97.884C116.084 97.4653 115.91 97.0706 115.626 96.7603C115.343 96.45 114.965 96.2413 114.551 96.1662C114.483 96.1546 114.415 96.1473 114.348 96.1415C114.3 96.1378 114.254 96.1168 114.221 96.0825C114.187 96.0481 114.167 96.0027 114.164 95.9546C114.161 95.9065 114.176 95.859 114.205 95.8209C114.235 95.7828 114.277 95.7567 114.324 95.7473C114.514 95.7196 114.707 95.7196 114.896 95.7473C115.305 95.8073 115.684 95.9977 115.976 96.2902C116.268 96.5826 116.458 96.9616 116.517 97.3705Z" fill="white"/>
<path d="M38.7091 94.5475H34.5812C34.29 94.5434 34.0021 94.6093 33.7416 94.7395C32.9486 95.1541 31.9374 96.4544 33.81 100.526C35.543 104.29 39.7408 106.728 42.5242 107.989C42.6841 108.062 42.8636 108.081 43.0354 108.044C43.2072 108.006 43.3619 107.913 43.4761 107.779C43.5902 107.645 43.6575 107.478 43.6677 107.302C43.6779 107.126 43.6304 106.952 43.5326 106.806C41.8782 104.333 39.6942 100.251 40.5745 96.9257C40.6458 96.6428 40.6514 96.3474 40.5908 96.062C40.5302 95.7767 40.4051 95.509 40.2251 95.2794C40.045 95.0499 39.8148 94.8646 39.552 94.7377C39.2893 94.6109 39.0009 94.5458 38.7091 94.5475Z" fill="#020001"/>
<path opacity="0.5" d="M36.8235 100.266C38.1253 100.266 39.1806 99.2113 39.1806 97.91C39.1806 96.6087 38.1253 95.5537 36.8235 95.5537C35.5216 95.5537 34.4663 96.6087 34.4663 97.91C34.4663 99.2113 35.5216 100.266 36.8235 100.266Z" fill="#C5CBCF"/>
<path d="M34.8228 97.3706C34.7951 97.5586 34.7951 97.7497 34.8228 97.9378C34.8324 97.9852 34.859 98.0275 34.8975 98.0567C34.936 98.086 34.9838 98.1003 35.0321 98.0969C35.0803 98.0935 35.1257 98.0727 35.1597 98.0383C35.1938 98.004 35.2142 97.9584 35.2171 97.9102C35.2171 97.9014 35.2171 97.8927 35.2171 97.884C35.2544 97.4653 35.4282 97.0704 35.7119 96.76C35.9955 96.4497 36.3733 96.2411 36.7871 96.1662C36.8555 96.1546 36.9239 96.1473 36.9908 96.1415C37.0388 96.1378 37.0839 96.1168 37.1177 96.0825C37.1515 96.0481 37.1716 96.0027 37.1745 95.9546C37.1773 95.9065 37.1626 95.859 37.1331 95.8209C37.1037 95.7828 37.0614 95.7567 37.0141 95.7473C36.8245 95.7196 36.6319 95.7196 36.4423 95.7473C36.0335 95.8076 35.6551 95.9981 35.3633 96.2906C35.0715 96.583 34.882 96.9618 34.8228 97.3706Z" fill="white"/>
<path d="M75.2422 81.0668H105.216C105.216 81.0668 110.018 80.517 110.018 87.9031C110.018 93.8666 108.28 101.234 106.489 104.982C106.205 105.579 105.757 106.084 105.198 106.438C104.639 106.791 103.991 106.98 103.329 106.98H48.0709C47.4904 106.981 46.9189 106.836 46.4083 106.56C45.8976 106.284 45.4639 105.885 45.1463 105.399C43.732 103.245 41.7997 98.3799 41.7997 87.9031C41.7997 87.9031 41.5174 81.0668 46.0731 81.0668H75.2422Z" fill="#020001"/>
<path opacity="0.44" d="M111.352 26.1125H39.1545C38.3804 26.1125 37.8886 25.7882 38.0399 25.4958C39.316 24.8355 41.3501 24.0108 44.5163 23.2239C44.8402 23.1434 45.1773 23.0634 45.5275 22.9839C51.1658 22.4501 60.0313 21.9846 73.809 21.9512C74.2819 21.9512 74.7606 21.9512 75.2437 21.9512C89.8377 21.9512 99.1062 22.4312 104.941 22.9824C105.322 23.0697 105.689 23.1584 106.041 23.2457C109.163 24.0209 111.176 24.8457 112.443 25.4958C112.603 25.7882 112.122 26.1125 111.352 26.1125Z" fill="#A8E2B8"/>
</g>
</g>
<defs>
<clipPath id="clip0">
<rect width="150" height="150" fill="white"/>
</clipPath>
<clipPath id="clip1">
<rect width="119.512" height="101.22" fill="white" transform="translate(14.6342 21.9512)"/>
</clipPath>
</defs>
</svg>
